<svg width="48" height="48" viewBox="0 0 48 48" fill="none" xmlns="http://www.w3.org/2000/svg">
<path d="M24.627 26.1967C24.5382 26.1775 24.4471 26.1741 24.3571 26.1875C23.4556 26.0826 22.7755 25.3198 22.774 24.4125C22.774 23.9777 22.4214 23.6252 21.9866 23.6252C21.5518 23.6252 21.1993 23.9777 21.1993 24.4125C21.2016 25.9276 22.215 27.2547 23.6759 27.6557V28.443C23.6759 28.8778 24.0284 29.2304 24.4632 29.2304C24.898 29.2304 25.2506 28.8778 25.2506 28.443V27.7034C26.9367 27.3504 28.0827 25.78 27.9055 24.0665C27.7279 22.3531 26.2843 21.051 24.5616 21.0506C23.5744 21.0506 22.774 20.2502 22.774 19.2629C22.774 18.2757 23.5744 17.4753 24.5616 17.4753C25.5489 17.4753 26.3493 18.2757 26.3493 19.2629C26.3493 19.6977 26.7018 20.0503 27.1366 20.0503C27.5714 20.0503 27.924 19.6977 27.924 19.2629C27.9217 17.6721 26.8072 16.3 25.2506 15.9717V15.2551C25.2506 14.8203 24.898 14.4678 24.4632 14.4678C24.0284 14.4678 23.6759 14.8203 23.6759 15.2551V16.0198C22.0512 16.4634 21.0055 18.0408 21.2293 19.71C21.453 21.3793 22.8774 22.6253 24.5616 22.6249C25.5358 22.6249 26.3305 23.4049 26.3481 24.3787C26.3662 25.3525 25.6004 26.1614 24.627 26.1967Z" fill="#866B00"/>
<path d="M13.1445 21.8976C13.1445 28.2033 18.2561 33.3148 24.5617 33.3148C30.8673 33.3148 35.9789 28.2033 35.9789 21.8976C35.9789 15.592 30.8673 10.4805 24.5617 10.4805C18.2592 10.4874 13.1518 15.5951 13.1445 21.8976ZM24.5617 12.0551C29.9977 12.0551 34.4042 16.4616 34.4042 21.8976C34.4042 27.3337 29.9977 31.7401 24.5617 31.7401C19.1257 31.7401 14.7192 27.3337 14.7192 21.8976C14.7254 16.4643 19.1284 12.0613 24.5617 12.0551Z" fill="#866B00"/>
<path d="M39.8606 35.2561L33.693 38.1702C32.8415 36.5863 31.208 35.5783 29.4103 35.5275L23.7167 35.3711C22.8152 35.3453 21.9306 35.1169 21.1291 34.7029L20.5497 34.4026C17.5833 32.8564 14.0476 32.8603 11.0843 34.4126L11.1205 33.1002C11.1324 32.6654 10.7899 32.3032 10.3551 32.2913L4.1117 32.1194C3.6769 32.1075 3.31514 32.4501 3.30322 32.8849L2.92608 46.5856C2.91417 47.0204 3.2567 47.3826 3.69151 47.3945L9.93486 47.5663H9.95639C10.3831 47.5663 10.7322 47.2269 10.7437 46.8005L10.7618 46.1451L12.3838 45.2766C13.0204 44.9341 13.7647 44.8526 14.4601 45.0494L24.1458 47.7678C24.1627 47.7728 24.1796 47.7766 24.1969 47.7805C24.897 47.927 25.6105 48.0004 26.3256 48C27.8403 48.0008 29.3373 47.6744 30.714 47.0424C30.7478 47.027 30.7805 47.0089 30.8116 46.9885L44.8549 37.9049C45.2048 37.6785 45.3178 37.2191 45.1129 36.8562C44.0703 35.0062 41.7579 34.3015 39.8606 35.2561ZM4.5219 45.8421L4.8556 33.7153L9.52466 33.8437L9.19096 45.9709L4.5219 45.8421ZM30.0047 45.6361C28.2943 46.408 26.384 46.621 24.5456 46.2454L14.8861 43.5339C13.7989 43.2268 12.6352 43.354 11.6406 43.8888L10.8118 44.3328L11.0336 36.2699C13.6601 34.523 17.0286 34.3434 19.8258 35.8009L20.4052 36.1011C21.4178 36.624 22.5346 36.9123 23.6737 36.9454L29.3677 37.1018C30.9669 37.148 32.3252 38.2867 32.6497 39.8537L24.1685 39.6195C23.7337 39.6076 23.3719 39.9505 23.3596 40.385C23.3477 40.8198 23.6906 41.1819 24.125 41.1938L33.4847 41.4514H33.5066C33.9329 41.451 34.2816 41.1116 34.2931 40.6856C34.3028 40.3434 34.2774 40.0009 34.217 39.6641L40.543 36.6751C40.5492 36.6724 40.5553 36.6693 40.5615 36.6662C41.4588 36.2122 42.5437 36.3641 43.2818 37.0472L30.0047 45.6361Z" fill="#866B00"/>
<path d="M25.3481 8.26706V0.787339C25.3481 0.352534 24.9956 0 24.5608 0C24.126 0 23.7734 0.352534 23.7734 0.787339V8.26706C23.7734 8.70186 24.126 9.05439 24.5608 9.05439C24.9956 9.05439 25.3481 8.70186 25.3481 8.26706Z" fill="#866B00"/>
<path d="M31.2544 8.26689V4.72386C31.2544 4.28906 30.9018 3.93652 30.467 3.93652C30.0322 3.93652 29.6797 4.28906 29.6797 4.72386V8.26689C29.6797 8.70169 30.0322 9.05422 30.467 9.05422C30.9018 9.05422 31.2544 8.70169 31.2544 8.26689Z" fill="#866B00"/>
<path d="M19.4438 8.26689V4.72386C19.4438 4.28906 19.0913 3.93652 18.6565 3.93652C18.2217 3.93652 17.8691 4.28906 17.8691 4.72386V8.26689C17.8691 8.70169 18.2217 9.05422 18.6565 9.05422C19.0913 9.05422 19.4438 8.70169 19.4438 8.26689Z" fill="#866B00"/>
</svg>
