<svg width="48" height="48" viewBox="0 0 48 48" fill="none" xmlns="http://www.w3.org/2000/svg">
<g clip-path="url(#clip0_2324_25436)">
<path fill-rule="evenodd" clip-rule="evenodd" d="M24.001 36C19.4072 36 16.0322 33.75 14.8135 30C14.1572 27.9375 14.251 25.5 15.0947 23.25C16.126 20.8125 17.9072 18.5625 20.251 16.875C20.3447 16.7812 20.5322 16.6875 20.626 16.6875H27.376C27.4697 16.6875 27.6572 16.7812 27.751 16.875C30.0947 18.5625 31.876 20.8125 32.9072 23.25C33.751 25.5 33.8447 27.9375 33.1885 30C31.9697 33.75 28.5947 36 24.001 36ZM20.8135 17.9062C15.9385 21.4688 14.8135 26.3438 15.9385 29.625C16.9697 32.9062 19.9697 34.875 24.001 34.875C28.0322 34.875 31.0322 32.9062 32.0635 29.625C33.1885 26.3438 32.0635 21.4688 27.1885 17.9062H20.8135Z" fill="#022160"/>
<path fill-rule="evenodd" clip-rule="evenodd" d="M27.4678 17.9062H20.5303C20.3428 17.9062 20.1553 17.8125 20.0616 17.625L17.0616 12.8438C16.8741 12.75 16.8741 12.4688 16.9678 12.2812C17.0616 12.0938 17.2491 12 17.5303 12H30.4678C30.7491 12 30.9366 12.0938 31.0303 12.2812C31.1241 12.4688 31.1241 12.75 30.9366 12.8438L27.9366 17.625C27.8428 17.8125 27.6553 17.9062 27.4678 17.9062ZM20.9053 16.6875H27.0928L29.4366 13.125H18.5616L20.9053 16.6875Z" fill="#022160"/>
<path fill-rule="evenodd" clip-rule="evenodd" d="M24 31.5938C22.2188 31.5938 20.8125 30.2812 20.8125 28.6875C20.8125 28.4062 21 28.125 21.375 28.125C21.6562 28.125 21.9375 28.4062 21.9375 28.6875C21.9375 29.625 22.875 30.4688 24 30.4688C25.125 30.4688 26.0625 29.625 26.0625 28.6875C26.0625 27.75 25.125 26.9062 24 26.9062C22.2188 26.9062 20.8125 25.5938 20.8125 24C20.8125 22.4062 22.2188 21.0938 24 21.0938C25.7812 21.0938 27.1875 22.4062 27.1875 24C27.1875 24.375 27 24.6562 26.625 24.6562C26.3438 24.6562 26.0625 24.375 26.0625 24C26.0625 23.0625 25.125 22.3125 24 22.3125C22.875 22.3125 21.9375 23.0625 21.9375 24C21.9375 25.0312 22.875 25.7812 24 25.7812C25.7812 25.7812 27.1875 27.0938 27.1875 28.6875C27.1875 30.2812 25.7812 31.5938 24 31.5938Z" fill="#022160"/>
<path fill-rule="evenodd" clip-rule="evenodd" d="M24 32.8125C23.7188 32.8125 23.4375 32.625 23.4375 32.25V20.4375C23.4375 20.1562 23.7188 19.875 24 19.875C24.2812 19.875 24.5625 20.1562 24.5625 20.4375V32.25C24.5625 32.625 24.2812 32.8125 24 32.8125Z" fill="#022160"/>
<path fill-rule="evenodd" clip-rule="evenodd" d="M24 5.8125C23.7188 5.8125 23.4375 5.53125 23.4375 5.25V0.5625C23.4375 0.28125 23.7188 0 24 0C24.2812 0 24.5625 0.28125 24.5625 0.5625V5.25C24.5625 5.53125 24.2812 5.8125 24 5.8125Z" fill="#022160"/>
<path fill-rule="evenodd" clip-rule="evenodd" d="M33.3749 8.34375C33.2811 8.34375 33.1874 8.34375 33.0936 8.25C32.8124 8.0625 32.7186 7.78125 32.9061 7.5L35.2499 3.46875C35.3436 3.1875 35.7186 3.09375 35.9999 3.1875C36.2811 3.375 36.3749 3.75 36.1874 4.03125L33.8436 8.0625C33.7499 8.25 33.5624 8.34375 33.3749 8.34375Z" fill="#022160"/>
<path fill-rule="evenodd" clip-rule="evenodd" d="M40.2186 15.1874C40.0311 15.1874 39.8436 15.0936 39.7499 14.9061C39.5624 14.6249 39.6561 14.2499 39.9374 14.1561L43.9686 11.8124C44.2499 11.6249 44.6249 11.7186 44.8124 11.9999C44.9061 12.2811 44.8124 12.6561 44.5311 12.7499L40.4999 15.0936C40.4061 15.1874 40.3124 15.1874 40.2186 15.1874Z" fill="#022160"/>
<path fill-rule="evenodd" clip-rule="evenodd" d="M47.4375 24.5625H42.75C42.4688 24.5625 42.1875 24.2812 42.1875 24C42.1875 23.7188 42.4688 23.4375 42.75 23.4375H47.4375C47.7188 23.4375 48 23.7188 48 24C48 24.2812 47.7188 24.5625 47.4375 24.5625Z" fill="#022160"/>
<path fill-rule="evenodd" clip-rule="evenodd" d="M44.2499 36.2811C44.1561 36.2811 44.0624 36.2811 43.9686 36.1874L39.9374 33.8436C39.6561 33.7499 39.5624 33.3749 39.7499 33.0936C39.9374 32.8124 40.2186 32.7186 40.4999 32.9061L44.5311 35.2499C44.8124 35.3436 44.9061 35.7186 44.8124 35.9999C44.7186 36.1874 44.4374 36.2811 44.2499 36.2811Z" fill="#022160"/>
<path fill-rule="evenodd" clip-rule="evenodd" d="M35.7186 44.9061C35.5311 44.9061 35.3436 44.7186 35.2499 44.5311L32.9061 40.4999C32.7186 40.2186 32.8124 39.9374 33.0936 39.7499C33.3749 39.5624 33.7499 39.6561 33.8436 39.9374L36.1874 43.9686C36.3749 44.2499 36.2811 44.6249 35.9999 44.8124C35.9061 44.8124 35.8124 44.9061 35.7186 44.9061Z" fill="#022160"/>
<path fill-rule="evenodd" clip-rule="evenodd" d="M24 48C23.7188 48 23.4375 47.7188 23.4375 47.4375V42.75C23.4375 42.4688 23.7188 42.1875 24 42.1875C24.2812 42.1875 24.5625 42.4688 24.5625 42.75V47.4375C24.5625 47.7188 24.2812 48 24 48Z" fill="#022160"/>
<path fill-rule="evenodd" clip-rule="evenodd" d="M12.2811 44.9061C12.1874 44.9061 12.0936 44.8124 11.9999 44.8124C11.7186 44.6249 11.6249 44.2499 11.8124 43.9686L14.1561 39.9374C14.2499 39.6561 14.6249 39.5624 14.9061 39.7499C15.1874 39.9374 15.2811 40.2186 15.0936 40.4999L12.7499 44.5311C12.6561 44.7186 12.4686 44.9061 12.2811 44.9061Z" fill="#022160"/>
<path fill-rule="evenodd" clip-rule="evenodd" d="M3.75 36.2811C3.46875 36.2811 3.28125 36.1874 3.1875 35.9999C3.09375 35.7186 3.1875 35.3436 3.46875 35.2499L7.5 32.9061C7.78125 32.7186 8.0625 32.8124 8.25 33.0936C8.4375 33.3749 8.34375 33.7499 8.0625 33.8436L4.03125 36.1874C3.9375 36.2811 3.84375 36.2811 3.75 36.2811Z" fill="#022160"/>
<path fill-rule="evenodd" clip-rule="evenodd" d="M5.25 24.5625H0.5625C0.28125 24.5625 0 24.2812 0 24C0 23.7188 0.28125 23.4375 0.5625 23.4375H5.25C5.53125 23.4375 5.8125 23.7188 5.8125 24C5.8125 24.2812 5.53125 24.5625 5.25 24.5625Z" fill="#022160"/>
<path fill-rule="evenodd" clip-rule="evenodd" d="M7.78125 15.1874C7.6875 15.1874 7.59375 15.1874 7.5 15.0936L3.46875 12.7499C3.1875 12.6561 3.09375 12.2811 3.1875 11.9999C3.375 11.7186 3.75 11.6249 4.03125 11.8124L8.0625 14.1561C8.34375 14.2499 8.4375 14.6249 8.25 14.9061C8.15625 15.0936 7.96875 15.1874 7.78125 15.1874Z" fill="#022160"/>
<path fill-rule="evenodd" clip-rule="evenodd" d="M14.6249 8.34375C14.4374 8.34375 14.2499 8.25 14.1561 8.0625L11.8124 4.03125C11.6249 3.75 11.7186 3.375 11.9999 3.1875C12.2811 3.09375 12.6561 3.1875 12.7499 3.46875L15.0936 7.5C15.2811 7.78125 15.1874 8.0625 14.9061 8.25C14.8124 8.34375 14.7186 8.34375 14.6249 8.34375Z" fill="#022160"/>
</g>
<defs>
<clipPath id="clip0_2324_25436">
<rect width="48" height="48" fill="white"/>
</clipPath>
</defs>
</svg>
